<svg width="20.13" height="16" viewBox="0 0 23 16" fill="none" xmlns="http://www.w3.org/2000/svg">
<path d="M1.15918 7C0.606895 7 0.15918 7.44772 0.15918 8C0.15918 8.55228 0.606895 9 1.15918 9L1.15918 7ZM21.9953 8.70711C22.3858 8.31658 22.3858 7.68342 21.9953 7.29289L15.6314 0.928933C15.2408 0.538409 14.6077 0.538409 14.2171 0.928933C13.8266 1.31946 13.8266 1.95262 14.2171 2.34315L19.874 8L14.2171 13.6569C13.8266 14.0474 13.8266 14.6805 14.2171 15.0711C14.6077 15.4616 15.2408 15.4616 15.6314 15.0711L21.9953 8.70711ZM1.15918 9L21.2882 9L21.2882 7L1.15918 7L1.15918 9Z" fill="#1E1B1B"/>
</svg>
